Coordinates
version=1
nRows=14
nColumns=40
inDegrees=yes

Units are S.I. units (second, meters, Newtons, ...)
Angles are in degrees.

endheader
time	pelvis_tilt	pelvis_list	pelvis_rotation	pelvis_tx	pelvis_ty	pelvis_tz	hip_flexion_r	hip_adduction_r	hip_rotation_r	knee_angle_r	knee_angle_r_beta	ankle_angle_r	subtalar_angle_r	mtp_angle_r	hip_flexion_l	hip_adduction_l	hip_rotation_l	knee_angle_l	knee_angle_l_beta	ankle_angle_l	subtalar_angle_l	mtp_angle_l	lumbar_extension	lumbar_bending	lumbar_rotation	arm_flex_r	arm_add_r	arm_rot_r	elbow_flex_r	pro_sup_r	wrist_flex_r	wrist_dev_r	arm_flex_l	arm_add_l	arm_rot_l	elbow_flex_l	pro_sup_l	wrist_flex_l	wrist_dev_l
     18.44500000	     -6.67801827	     -4.85351110	      1.65613738	      1.02196120	      0.91858728	      0.45086384	      0.13804533	     -0.67794288	    -15.18522288	     25.06704623	     25.06704623	     14.51791873	      5.25112597	    -12.99930169	     30.18741409	     -5.53429453	     -3.49986215	     24.64577327	     24.64577327	      5.04493742	    -14.18725612	      5.58241569	     -8.23491745	      5.53053560	      6.48518130	     31.25496049	    -15.95411698	     -0.84371484	    111.57896264	     43.97349363	      0.00000000	      0.00000000	    -11.32739318	     -6.84043580	      5.11386452	     25.18782085	     45.18833466	      0.00000000	      0.00000000
     18.45657143	     -6.76611319	     -4.80505638	      1.50127228	      1.02184032	      0.91988275	      0.44867555	      1.55970601	     -1.43057159	    -14.88459530	     28.36740788	     28.36740788	     13.33506363	      4.12305855	    -13.64607412	     29.55433957	     -5.45289369	     -3.82562560	     24.46071689	     24.46071689	      5.63328272	    -13.90874889	      5.23380720	     -8.19710101	      5.44974833	      6.16861150	     29.34641004	    -16.02561997	     -0.59179561	    110.97984096	     43.98825102	      0.00000000	      0.00000000	     -9.94807598	     -7.06359232	      4.97126267	     25.89235541	     45.24191676	      0.00000000	      0.00000000
     18.46814286	     -6.84199135	     -4.76490422	      1.30924246	      1.02153344	      0.92105093	      0.44674106	      3.18820940	     -2.12356905	    -14.35011152	     31.92713135	     31.92713135	     11.89146506	      2.52560163	    -14.23417244	     28.90343326	     -5.40896055	     -4.19604266	     24.25046734	     24.25046734	      6.16099381	    -13.59965458	      4.84573265	     -8.21173848	      5.34510683	      5.97885329	     27.26845085	    -16.12985458	     -0.47562188	    110.23398350	     44.00979976	      0.00000000	      0.00000000	     -8.48479633	     -7.35071723	      4.75895920	     26.75212643	     45.30575108	      0.00000000	      0.00000000
     18.47971429	     -6.86439322	     -4.67892295	      1.11675179	      1.02111197	      0.92207046	      0.44493236	      4.95157387	     -2.83092351	    -13.75090766	     35.72044411	     35.72044411	     10.32605407	      0.68122100	    -14.58606600	     28.21786929	     -5.32973437	     -4.61329413	     24.07626340	     24.07626340	      6.65523466	    -13.31023593	      4.43704470	     -8.28338307	      5.21045561	      5.80527081	     25.10603894	    -16.12535722	     -0.35371423	    109.24763455	     44.03540312	      0.00000000	      0.00000000	     -6.88336522	     -7.68513816	      4.53664021	     27.67821618	     45.37052186	      0.00000000	      0.00000000
     18.49128571	     -6.88591726	     -4.64863593	      0.94674840	      1.02041903	      0.92291127	      0.44331477	      6.88516788	     -3.40320256	    -13.08257200	     39.64423831	     39.64423831	      8.62907055	     -1.42575624	    -14.62167417	     27.55362367	     -5.29551137	     -4.93030326	     23.88590677	     23.88590677	      7.13117740	    -12.99075373	      4.00116466	     -8.39944913	      5.10941194	      5.63212482	     22.96864089	    -16.15186610	     -0.32592755	    107.99818532	     44.07134702	      0.00000000	      0.00000000	     -5.21125919	     -8.04786903	      4.29833924	     28.67038729	     45.43680212	      0.00000000	      0.00000000
     18.50285714	     -7.05208721	     -4.77369086	      0.67220698	      1.01941054	      0.92344291	      0.44222514	      9.18744427	     -3.47429662	    -11.81669173	     43.62012613	     43.62012613	      6.84309872	     -4.61775803	    -13.84142569	     27.10780153	     -5.51822774	     -5.40026867	     23.75524141	     23.75524141	      7.39296468	    -12.61356802	      3.17437686	     -8.33882124	      5.14255709	      5.83828360	     20.65368389	    -16.30587513	     -1.18521118	    105.88494095	     44.17456873	      0.00000000	      0.00000000	     -3.62883022	     -8.45579438	      3.77578033	     30.22370873	     45.54588653	      0.00000000	      0.00000000
     18.51442857	     -6.90392625	     -4.62833948	      0.57895517	      1.01847427	      0.92413625	      0.44070985	     11.11399013	     -4.11891874	    -11.34569723	     47.55405326	     47.55405326	      5.28277864	     -6.30027799	    -13.42809212	     26.32729104	     -5.34260168	     -5.67193865	     23.64759020	     23.64759020	      7.86683547	    -12.37900279	      2.76063912	     -8.71761806	      4.93932104	      5.44086768	     18.62954958	    -16.01034364	     -0.99252832	    104.44824712	     44.20990270	      0.00000000	      0.00000000	     -1.75163381	     -8.90951970	      3.57944021	     31.15144419	     45.60523689	      0.00000000	      0.00000000
     18.52600000	     -7.10938971	     -4.57588111	      0.26959560	      1.01712442	      0.92436876	      0.43975193	     13.66764704	     -4.27454345	    -10.18633806	     51.52022265	     51.52022265	      3.90919338	     -8.88243394	    -11.83587295	     25.90882966	     -5.38201876	     -6.19269421	     23.46092117	     23.46092117	      8.07965423	    -12.07490488	      2.16982196	     -8.59033547	      4.80174114	      5.60596718	     16.47515462	    -16.18268447	     -1.55029323	    101.44343123	     44.32394341	      0.00000000	      0.00000000	     -0.02074101	     -9.32372166	      3.27467246	     32.44260021	     45.67825286	      0.00000000	      0.00000000
     18.53757143	     -6.99744698	     -4.43929045	      0.11663626	      1.01588220	      0.92485655	      0.43859187	     15.77818730	     -4.63924127	     -9.48645380	     55.21166026	     55.21166026	      2.79314461	    -10.58686026	    -10.62302308	     25.22367185	     -5.26402187	     -6.53060860	     23.41076756	     23.41076756	      8.42234200	    -11.84053853	      1.68779403	     -8.90092239	      4.59141205	      5.35727741	     14.49170102	    -15.91767583	     -1.69584167	     98.97331317	     44.40467764	      0.00000000	      0.00000000	      1.92084425	     -9.84318882	      3.08240751	     33.51325049	     45.73631507	      0.00000000	      0.00000000
     18.54914286	     -6.94422221	     -4.44349394	     -0.01092254	      1.01455922	      0.92533840	      0.43756115	     18.15580435	     -4.76214880	     -8.77501305	     59.15289337	     59.15289337	      4.20755554	    -10.69722936	     -2.61108869	     24.52875571	     -5.29000619	     -6.84958213	     23.15073545	     23.15073545	      8.24603266	    -11.67746284	      0.00192861	     -9.01628872	      4.55468505	      4.74255288	     13.47917496	    -15.05262777	     -2.44083502	     93.78323744	     44.64932060	      0.00000000	      0.00000000	      3.27109589	    -10.51740363	      3.06199739	     35.59323351	     45.79657570	      0.00000000	      0.00000000
     18.56071429	     -6.85939304	     -4.27171004	     -0.13608322	      1.01321854	      0.92579612	      0.43645296	     20.22968695	     -5.03481605	     -8.13121106	     62.22490249	     62.22490249	      3.32826474	    -12.02678530	     -2.34339658	     23.84245349	     -5.11336927	     -7.16834153	     23.02053971	     23.02053971	      8.64416333	    -11.42607934	     -0.23199089	     -9.29260999	      4.36364918	      4.63519189	     11.44735277	    -15.14381197	     -2.40987818	     91.28271058	     44.72437147	      0.00000000	      0.00000000	      5.38414041	    -11.01041247	      2.95478473	     36.49546270	     45.84448385	      0.00000000	      0.00000000
     18.57228571	     -6.71730057	     -4.27640219	     -0.19556697	      1.01192935	      0.92651103	      0.43541764	     22.14797403	     -5.09193580	     -7.67041829	     64.92588285	     64.92588285	      2.98265027	    -12.90630131	     -1.18724057	     23.09440479	     -5.13889002	     -7.51376385	     22.87301493	     22.87301493	      9.03723601	    -10.85459429	     -0.67885308	     -9.49368856	      4.34916629	      4.36749668	     10.39096421	    -14.48679851	     -3.48513479	     85.77505599	     44.94363550	      0.00000000	      0.00000000	      7.53734759	    -11.58162471	      3.41102232	     37.30737416	     45.83472714	      0.00000000	      0.00000000
     18.58385714	     -6.65447244	     -4.10436147	     -0.28425742	      1.01057105	      0.92706610	      0.43434994	     24.12748106	     -5.31897226	     -7.16141790	     67.30573409	     67.30573409	      2.58989705	    -13.63639728	     -1.03628530	     22.36945706	     -4.93192710	     -7.80573968	     22.60900094	     22.60900094	      9.39928509	    -10.54592920	     -0.85350981	     -9.73748882	      4.19724780	      4.25827071	      8.43089790	    -14.63249610	     -3.38341479	     83.16237840	     45.01902303	      0.00000000	      0.00000000	      9.62757894	    -12.01759799	      3.41185602	     38.30326310	     45.86854212	      0.00000000	      0.00000000
     18.59542857	     -6.51609701	     -4.12262439	     -0.31238021	      1.00935556	      0.92793159	      0.43341914	     25.87960482	     -5.35291646	     -6.86762123	     69.22198480	     69.22198480	      2.59623682	    -13.94433497	     -0.22960629	     21.53771460	     -4.95127570	     -8.13894397	     22.29720579	     22.29720579	      9.75783669	     -9.93184667	     -1.25459837	     -9.89504403	      4.22716638	      3.86838609	      7.91848348	    -13.96039825	     -4.37226110	     76.58881495	     45.26800808	      0.00000000	      0.00000000	     11.66493887	    -12.73715164	      4.47421082	     39.19819700	     45.79598295	      0.00000000	      0.00000000
